Star Wars The Clone Wars S03E05 HDTV XviD-2HD

General
Complete name : Star.Wars.The.Clone.Wars.S03E05.HDTV.XviD-2HD.avi
Format : AVI
Format/Info : Audio Video Interleave
File size : 176 MiB
Duration : 22mn 5s
Overall bit rate : 1 115 Kbps
Writing application : MEncoder SVN-r30531-4.3.2
Writing library : MPlayer

Video
ID : 0
Format : MPEG-4 Visual
Format profile : Advanced Simple@L5
Format settings, BVOP : Yes
Format settings, QPel : No
Format settings, GMC : No warppoints
Format settings, Matrix : Default (H.263)
Codec ID : XVID
Codec ID/Hint : XviD
Duration : 22mn 5s
Bit rate : 972 Kbps
Width : 624 pixels
Height : 352 pixels
Display aspect ratio : 16:9
Frame rate : 23.976 fps
Color space : YUV
Chroma subsampling : 4:2:0
Bit depth : 8 bits
Scan type : Progressive
Bits/(Pixel*Frame) : 0.185
Stream size : 154 MiB (87%)
Writing library : XviD 1.2.1 (UTC 2008-12-04)

Audio
ID : 1
Format : MPEG Audio
Format version : Version 1
Format profile : Layer 3
Mode : Joint stereo
Mode extension : MS Stereo
Codec ID : 55
Codec ID/Hint : MP3
Duration : 22mn 5s
Bit rate mode : Variable
Bit rate : 128 Kbps
Channel(s) : 2 channels
Sampling rate : 48.0 KHz
Stream size : 20.6 MiB (12%)
Alignment : Aligned on interleaves
Interleave, duration : 24 ms (0.58 video frame)
Interleave, preload duration : 580 ms

Subtitles: English, Russian


ENJOY!